<?xml version="1.0" encoding="UTF-8"?>
<svg id="logosandtypes_com" data-name="logosandtypes com" xmlns="http://www.w3.org/2000/svg" viewBox="0 0 150 150">
  <defs>
    <style>
      .cls-1 {
        fill: #FFFFFF;
      }

      .cls-2 {
        fill: none;
      }

      .cls-3 {
        fill: #FFFFFF;
      }
    </style>
  </defs>
  <path class="cls-2" d="M0,0H150V150H0V0Z"/>
  <path class="cls-3" d="M109.22,94.95c-10.1,17.84-25.05,24.83-45.86,24.83-17.27,0-32.68-6.43-42.8-16.49,10.59,22.93,33.68,38.83,60.46,38.83,22.58,0,42.54-11.3,54.59-28.59l-26.39-18.58Z"/>
  <path class="cls-1" d="M14.39,75.06c0,21.24,21.92,38.45,48.97,38.45,7.51,.03,14.96-1.35,21.96-4.07-1.42,.18-2.86,.27-4.29,.27-19.01,0-34.43-15.51-34.43-34.64s15.42-34.64,34.43-34.64c5.54,0,11.01,1.35,15.92,3.92,4.91,2.57,9.13,6.3,12.28,10.85l26.39-18.59c-12.05-17.28-32.01-28.58-54.59-28.58C44.23,8.03,14.39,38.04,14.39,75.06h0Z"/>
</svg>